<svg width="24" height="24" viewBox="0 0 24 24" fill="none" xmlns="http://www.w3.org/2000/svg">
<path d="M11.283 7.40088C12.1536 7.40088 12.9884 7.7467 13.604 8.36225C14.2196 8.97781 14.5654 9.81269 14.5654 10.6832V23.9897C12.8241 23.9897 11.1542 23.298 9.92295 22.0667C8.69171 20.8355 8 19.1656 8 17.4243V10.6832C8 10.2521 8.08492 9.82524 8.24992 9.42696C8.41492 9.02868 8.65675 8.66681 8.96162 8.36201C9.26649 8.0572 9.62841 7.81544 10.0267 7.65053C10.425 7.48562 10.8519 7.40079 11.283 7.40088Z" fill="white"/>
<path d="M14.5661 24C14.5661 24 8.3236 21.8717 8.00073 11.6098V10.3176H14.5661V24Z" fill="white"/>
<path d="M11.2838 6.56468C13.0966 6.56468 14.5661 5.09513 14.5661 3.28234C14.5661 1.46955 13.0966 0 11.2838 0C9.47102 0 8.00146 1.46955 8.00146 3.28234C8.00146 5.09513 9.47102 6.56468 11.2838 6.56468Z" fill="white"/>
<path d="M8.14992 11.5024C7.82496 10.2214 8.26079 8.84485 9.31934 8.05338C9.88586 7.6288 10.5751 7.39996 11.283 7.40137C13.0961 7.40137 14.6797 8.87414 14.5661 10.6837C14.4824 12.0086 14.5472 13.9284 16.2397 15.724C16.2397 15.724 11.8381 16.4716 9.4867 13.8879C9.41697 13.8119 9.34724 13.7373 9.27262 13.6634C8.63526 13.0142 8.3103 12.137 8.14992 11.5024Z" fill="white"/>
<path d="M9.08594 5.72054C9.67507 6.2519 10.4367 6.5519 11.23 6.56503C12.0232 6.57817 12.7944 6.30356 13.4008 5.792C14.0072 5.28044 14.4078 4.56656 14.5285 3.78243C14.6491 2.99831 14.4817 2.19701 14.0572 1.52678C12.8641 1.42218 9.29514 1.45496 9.08594 5.72054Z" fill="white"/>
</svg>
